barebones-pedaling
version=1
nRows=12
nColumns=49
inDegrees=yes
endheader
time	/jointset/bb/crank_angle/value	/jointset/bb/crank_angle/speed	/jointset/spindle/pedal_angle_r/value	/jointset/spindle/pedal_angle_r/speed	/jointset/ground_pelvis/pelvis_tilt/value	/jointset/ground_pelvis/pelvis_tilt/speed	/jointset/ground_pelvis/pelvis_list/value	/jointset/ground_pelvis/pelvis_list/speed	/jointset/ground_pelvis/pelvis_rotation/value	/jointset/ground_pelvis/pelvis_rotation/speed	/jointset/ground_pelvis/pelvis_tx/value	/jointset/ground_pelvis/pelvis_tx/speed	/jointset/ground_pelvis/pelvis_ty/value	/jointset/ground_pelvis/pelvis_ty/speed	/jointset/ground_pelvis/pelvis_tz/value	/jointset/ground_pelvis/pelvis_tz/speed	/jointset/hip_r/hip_angle_r/value	/jointset/hip_r/hip_angle_r/speed	/jointset/hip_r/hip_adduction_r/value	/jointset/hip_r/hip_adduction_r/speed	/jointset/hip_r/hip_rotation_r/value	/jointset/hip_r/hip_rotation_r/speed	/jointset/knee_r/knee_angle_r/value	/jointset/knee_r/knee_angle_r/speed	/jointset/knee_r/tib_tx_r/value	/jointset/knee_r/tib_tx_r/speed	/jointset/knee_r/tib_ty_r/value	/jointset/knee_r/tib_ty_r/speed	/jointset/tib_pat_r/pat_angle_r/value	/jointset/tib_pat_r/pat_angle_r/speed	/jointset/tib_pat_r/pat_tx_r/value	/jointset/tib_pat_r/pat_tx_r/speed	/jointset/tib_pat_r/pat_ty_r/value	/jointset/tib_pat_r/pat_ty_r/speed	/jointset/ankle_r/ankle_angle_r/value	/jointset/ankle_r/ankle_angle_r/speed	/jointset/subtalar_r/subtalar_angle_r/value	/jointset/subtalar_r/subtalar_angle_r/speed	/jointset/mtp_r/mtp_angle_r/value	/jointset/mtp_r/mtp_angle_r/speed	/forceset/bifemlh_r/activation	/forceset/bifemlh_r/fiber_length	/forceset/bifemsh_r/activation	/forceset/bifemsh_r/fiber_length	/forceset/glut_max2_r/activation	/forceset/glut_max2_r/fiber_length	/forceset/vas_int_r/activation	/forceset/vas_int_r/fiber_length
      0.00000000	    -10.13488126	     -6.22493897	      4.90699092	      7.91258418	      0.00000000	      0.00000000	      0.00000000	      0.00000000	     -0.00000000	     -0.00000000	     -0.10000000	     -0.00000000	     -0.05000000	      0.00000000	      0.00000000	      0.00000000	     83.11760167	      0.38520129	      4.07985323	      0.01886978	     -3.79708845	      0.19393385	   -115.32183968	      1.88303422	     -0.00208256	      0.00063517	     -0.49454392	      0.00061077	     17.65061979	     -0.00127289	      0.02178359	      0.00092160	     -0.02422901	      0.00014877	     27.66764378	     -0.59797504	     -0.00000000	     -0.00000000	     -0.00000000	      0.00000000	      0.05000000	      0.10000000	      0.05000000	      0.10000000	      0.05000000	      0.10000000	      0.05000000	      0.10000000
      0.01000000	    -10.19476201	     -5.76181263	      4.98310279	      7.32329115	      0.00000000	      0.00000000	     -0.00000000	     -0.00000000	      0.00000000	      0.00000000	     -0.10000000	     -0.00000000	     -0.05000000	      0.00000000	     -0.00000000	     -0.00000000	     83.12129205	      0.35364430	      4.08003489	      0.01749334	     -3.79522171	      0.17973538	   -115.30371149	      1.74570132	     -0.00207645	      0.00058857	     -0.49453804	      0.00056628	     17.65060748	     -0.00119204	      0.02179246	      0.00085423	     -0.02422758	      0.00013789	     27.66188902	     -0.55397590	     -0.00000000	     -0.00000000	     -0.00000000	     -0.00000000	      0.05000000	      0.10000000	      0.05000000	      0.10000000	      0.05000000	      0.10000000	      0.05000000	      0.10000000
      0.06000000	    -10.44060046	     -4.28964170	      5.29551105	      5.45028946	     -0.00000000	     -0.00000000	      0.00000000	      0.00000000	      0.00000000	      0.00000000	     -0.10000000	      0.00000000	     -0.05000000	      0.00000000	     -0.00000000	     -0.00000000	     83.13612606	      0.25441848	      4.08078368	      0.01310733	     -3.78753283	      0.13451172	   -115.22898548	      1.30809426	     -0.00205128	      0.00044019	     -0.49451379	      0.00042452	     17.65055539	     -0.00093033	      0.02182901	      0.00063962	     -0.02422168	      0.00010322	     27.63820996	     -0.41391085	      0.00000000	      0.00000000	     -0.00000000	     -0.00000000	      0.05000000	      0.10000000	      0.05000000	      0.10000000	      0.05000000	      0.10000000	      0.05000000	      0.10000000
      0.13349110	    -10.73871314	     -4.21204271	      5.67420502	      5.34946070	     -0.00000000	      0.00000000	      0.00000000	      0.00000000	     -0.00000000	     -0.00000000	     -0.10000000	     -0.00000000	     -0.05000000	      0.00000000	     -0.00000000	     -0.00000000	     83.15343271	      0.23923916	      4.08169809	      0.01296923	     -3.77815551	      0.13290471	   -115.13772376	      1.29443595	     -0.00202061	      0.00043457	     -0.49448416	      0.00042031	     17.65048889	     -0.00096571	      0.02187361	      0.00063238	     -0.02421449	      0.00010201	     27.60938353	     -0.40814731	      0.00000000	      0.00000000	     -0.00000000	     -0.00000000	      0.05000000	      0.10000000	      0.05000000	      0.10000000	      0.05000000	      0.10000000	      0.05000000	      0.10000000
      0.20698219	    -11.12071073	     -6.68364590	      6.15922806	      8.48392589	     -0.00000000	      0.00000000	      0.00000000	      0.00000000	     -0.00000000	     -0.00000000	     -0.10000000	      0.00000000	     -0.05000000	      0.00000000	     -0.00000000	      0.00000000	     83.17452122	      0.35809662	      4.08287995	      0.02077914	     -3.76605506	      0.21255362	   -115.01975613	      2.07424694	     -0.00198106	      0.00069425	     -0.49444585	      0.00067398	     17.65039825	     -0.00164146	      0.02193121	      0.00101217	     -0.02420520	      0.00016320	     27.57227096	     -0.65105515	      0.00000000	      0.00000000	     -0.00000000	     -0.00000000	      0.05000000	      0.10000000	      0.05000000	      0.10000000	      0.05000000	      0.10000000	      0.05000000	      0.10000000
      0.26919196	    -11.67728985	    -11.82894892	      6.86544904	     15.00328032	      0.00000000	      0.00000000	      0.00000000	      0.00000000	     -0.00000000	      0.00000000	     -0.10000000	     -0.00000000	     -0.05000000	     -0.00000000	     -0.00000000	     -0.00000000	     83.20304715	      0.57820579	      4.08462221	      0.03728426	     -3.74825612	      0.38040068	   -114.84581389	      3.72291081	     -0.00192297	      0.00124048	     -0.49438930	      0.00121091	     17.65025481	     -0.00319680	      0.02201602	      0.00181357	     -0.02419153	      0.00029221	     27.51785582	     -1.16070961	      0.00000000	     -0.00000000	     -0.00000000	     -0.00000000	      0.05000000	      0.10000000	      0.05000000	      0.10000000	      0.05000000	      0.10000000	      0.05000000	      0.10000000
      0.32329374	    -12.52467295	    -20.31777862	      7.93958179	     25.73874985	      0.00000000	      0.00000000	      0.00000000	      0.00000000	     -0.00000000	     -0.00000000	     -0.10000000	      0.00000000	     -0.05000000	      0.00000000	     -0.00000000	     -0.00000000	     83.24145392	      0.84756573	      4.08732029	      0.06534679	     -3.72078138	      0.66415670	   -114.57633217	      6.52880271	     -0.00183349	      0.00216025	     -0.49430158	      0.00212683	     17.65000933	     -0.00629555	      0.02214712	      0.00317202	     -0.02417042	      0.00051051	     27.43427032	     -2.01445315	     -0.00000000	     -0.00000000	     -0.00000000	     -0.00000000	      0.05000000	      0.10000000	      0.05000000	      0.10000000	      0.05000000	      0.10000000	      0.05000000	      0.10000000
      0.37739553	    -13.99248981	    -35.36000982	      9.79705355	     44.69837423	      0.00000000	      0.00000000	      0.00000000	      0.00000000	     -0.00000000	     -0.00000000	     -0.10000000	     -0.00000000	     -0.05000000	      0.00000000	     -0.00000000	     -0.00000000	     83.29361922	      1.03502330	      4.09212038	      0.11754066	     -3.67215138	      1.18707177	   -114.09643586	     11.76038597	     -0.00167568	      0.00384276	     -0.49414504	      0.00384146	     17.64950198	     -0.01353339	      0.02237973	      0.00568691	     -0.02413302	      0.00091326	     27.28755076	     -3.56204223	     -0.00000000	      0.00000000	     -0.00000000	     -0.00000000	      0.05000000	      0.10000000	      0.05000000	      0.10000000	      0.05000000	      0.10000000	      0.05000000	      0.10000000
      0.43149731	    -16.55139998	    -61.63735322	     13.02564304	     77.61797146	      0.00000000	     -0.00000000	      0.00000000	      0.00000000	     -0.00000000	     -0.00000000	     -0.10000000	     -0.00000000	     -0.05000000	     -0.00000000	     -0.00000000	      0.00000000	     83.34089348	      0.46498192	      4.10085466	      0.21577775	     -3.58439408	      2.15747517	   -113.22098885	     21.67305227	     -0.00139288	      0.00691945	     -0.49385840	      0.00711317	     17.64835173	     -0.03199890	      0.02280127	      0.01039065	     -0.02406547	      0.00166120	     27.02678379	     -6.34639701	      0.00000000	      0.00000000	     -0.00000000	      0.00000000	      0.05000000	      0.10000000	      0.05000000	      0.10000000	      0.05000000	      0.10000000	      0.05000000	      0.10000000
      0.48559910	    -20.99180359	   -106.24076513	     18.59835895	    132.87955347	     -0.00000000	     -0.00000000	     -0.00000000	     -0.00000000	      0.00000000	      0.00000000	     -0.10000000	      0.00000000	     -0.05000000	      0.00000000	      0.00000000	     -0.00000000	     83.29051548	     -3.19624447	      4.11701683	      0.40050445	     -3.42398040	      3.95004352	   -111.58919485	     40.67861499	     -0.00088327	      0.01242320	     -0.49332056	      0.01346244	     17.64547693	     -0.08276352	      0.02357734	      0.01919233	     -0.02394199	      0.00303761	     26.56375788	    -11.18320683	     -0.00000000	      0.00000000	      0.00000000	      0.00000000	      0.05000000	      0.10000000	      0.05000000	      0.10000000	      0.05000000	      0.10000000	      0.05000000	      0.10000000
      0.51088407	    -24.03610964	   -135.53337919	     22.39707068	    168.72304883	     -0.00000000	     -0.00000000	     -0.00000000	     -0.00000000	     -0.00000000	     -0.00000000	     -0.10000000	     -0.00000000	     -0.05000000	      0.00000000	      0.00000000	      0.00000000	     83.15998891	     -7.53903764	      4.12873458	      0.53184085	     -3.30880227	      5.21262169	   -110.39266336	     54.62160131	     -0.00052389	      0.01613060	     -0.49292344	      0.01817914	     17.64281866	     -0.13126262	      0.02413857	      0.02546957	     -0.02385355	      0.00399535	     26.24232418	    -14.33483757	     -0.00000000	     -0.00000000	      0.00000000	      0.00000000	      0.05000000	      0.10000000	      0.05000000	      0.10000000	      0.05000000	      0.10000000	      0.05000000	      0.10000000
      0.53616904	    -27.89503758	   -170.63853334	     27.18679690	    211.17493299	     -0.00000000	     -0.00000000	     -0.00000000	      0.00000000	     -0.00000000	      0.00000000	     -0.10000000	     -0.00000000	     -0.05000000	     -0.00000000	      0.00000000	      0.00000000	     82.88367324	    -14.92601309	      4.14419591	      0.69653493	     -3.15761887	      6.80061231	   -108.79067721	     72.85850102	     -0.00006153	      0.02054079	     -0.49238838	      0.02441816	     17.63860858	     -0.20711131	      0.02487972	      0.03344300	     -0.02373808	      0.00517267	     25.83475584	    -17.96164611	     -0.00000000	     -0.00000000	      0.00000000	      0.00000000	      0.05000000	      0.10000000	      0.05000000	      0.10000000	      0.05000000	      0.10000000	      0.05000000	      0.10000000
